<mxfile host="65bd71144e">
    <diagram id="u8oQB0yipT9J4LQQ7AH2" name="ページ1">
        <mxGraphModel dx="334" dy="499" grid="1" gridSize="10" guides="1" tooltips="1" connect="1" arrows="1" fold="1" page="1" pageScale="1" pageWidth="850" pageHeight="1100" math="0" shadow="0">
            <root>
                <mxCell id="0"/>
                <mxCell id="1" parent="0"/>
                <mxCell id="2" value="NOPE" style="rounded=0;whiteSpace=wrap;html=1;fillColor=#001dbc;fontColor=#ffffff;strokeColor=#000000;fontSize=20;fontStyle=1" parent="1" vertex="1">
                    <mxGeometry x="210" y="230" width="150" height="30" as="geometry"/>
                </mxCell>
            </root>
        </mxGraphModel>
    </diagram>
</mxfile>